<svg width="132" height="36" viewBox="0 0 132 36" fill="none" xmlns="http://www.w3.org/2000/svg">
<rect x="15" y="2" width="115" height="28" fill="black"/>
<g filter="url(#filter0_d_3_2)">
<path d="M80.0742 17.6875C80.0742 17.2891 80.0117 16.9375 79.8867 16.6328C79.7695 16.3203 79.5586 16.0391 79.2539 15.7891C78.957 15.5391 78.543 15.3008 78.0117 15.0742C77.4883 14.8477 76.8242 14.6172 76.0195 14.3828C75.1758 14.1328 74.4141 13.8555 73.7344 13.5508C73.0547 13.2383 72.4727 12.8828 71.9883 12.4844C71.5039 12.0859 71.1328 11.6289 70.875 11.1133C70.6172 10.5977 70.4883 10.0078 70.4883 9.34375C70.4883 8.67969 70.625 8.06641 70.8984 7.50391C71.1719 6.94141 71.5625 6.45312 72.0703 6.03906C72.5859 5.61719 73.1992 5.28906 73.9102 5.05469C74.6211 4.82031 75.4141 4.70312 76.2891 4.70312C77.5703 4.70312 78.6562 4.94922 79.5469 5.44141C80.4453 5.92578 81.1289 6.5625 81.5977 7.35156C82.0664 8.13281 82.3008 8.96875 82.3008 9.85938H80.0508C80.0508 9.21875 79.9141 8.65234 79.6406 8.16016C79.3672 7.66016 78.9531 7.26953 78.3984 6.98828C77.8438 6.69922 77.1406 6.55469 76.2891 6.55469C75.4844 6.55469 74.8203 6.67578 74.2969 6.91797C73.7734 7.16016 73.3828 7.48828 73.125 7.90234C72.875 8.31641 72.75 8.78906 72.75 9.32031C72.75 9.67969 72.8242 10.0078 72.9727 10.3047C73.1289 10.5938 73.3672 10.8633 73.6875 11.1133C74.0156 11.3633 74.4297 11.5938 74.9297 11.8047C75.4375 12.0156 76.043 12.2188 76.7461 12.4141C77.7148 12.6875 78.5508 12.9922 79.2539 13.3281C79.957 13.6641 80.5352 14.043 80.9883 14.4648C81.4492 14.8789 81.7891 15.3516 82.0078 15.8828C82.2344 16.4062 82.3477 17 82.3477 17.6641C82.3477 18.3594 82.207 18.9883 81.9258 19.5508C81.6445 20.1133 81.2422 20.5938 80.7188 20.9922C80.1953 21.3906 79.5664 21.6992 78.832 21.918C78.1055 22.1289 77.293 22.2344 76.3945 22.2344C75.6055 22.2344 74.8281 22.125 74.0625 21.9062C73.3047 21.6875 72.6133 21.3594 71.9883 20.9219C71.3711 20.4844 70.875 19.9453 70.5 19.3047C70.1328 18.6562 69.9492 17.9062 69.9492 17.0547H72.1992C72.1992 17.6406 72.3125 18.1445 72.5391 18.5664C72.7656 18.9805 73.0742 19.3242 73.4648 19.5977C73.8633 19.8711 74.3125 20.0742 74.8125 20.207C75.3203 20.332 75.8477 20.3945 76.3945 20.3945C77.1836 20.3945 77.8516 20.2852 78.3984 20.0664C78.9453 19.8477 79.3594 19.5352 79.6406 19.1289C79.9297 18.7227 80.0742 18.2422 80.0742 17.6875ZM87.4922 4.9375V22H85.2305V4.9375H87.4922ZM97.793 4.9375L90.7031 12.8945L86.7188 17.0312L86.3438 14.6172L89.3438 11.3125L95.0742 4.9375H97.793ZM95.6133 22L89.2969 13.6797L90.6445 11.8867L98.3086 22H95.6133ZM113.062 12.9297V14.0078C113.062 15.2891 112.902 16.4375 112.582 17.4531C112.262 18.4688 111.801 19.332 111.199 20.043C110.598 20.7539 109.875 21.2969 109.031 21.6719C108.195 22.0469 107.258 22.2344 106.219 22.2344C105.211 22.2344 104.285 22.0469 103.441 21.6719C102.605 21.2969 101.879 20.7539 101.262 20.043C100.652 19.332 100.18 18.4688 99.8438 17.4531C99.5078 16.4375 99.3398 15.2891 99.3398 14.0078V12.9297C99.3398 11.6484 99.5039 10.5039 99.832 9.49609C100.168 8.48047 100.641 7.61719 101.25 6.90625C101.859 6.1875 102.582 5.64062 103.418 5.26562C104.262 4.89062 105.188 4.70312 106.195 4.70312C107.234 4.70312 108.172 4.89062 109.008 5.26562C109.852 5.64062 110.574 6.1875 111.176 6.90625C111.785 7.61719 112.25 8.48047 112.57 9.49609C112.898 10.5039 113.062 11.6484 113.062 12.9297ZM110.824 14.0078V12.9062C110.824 11.8906 110.719 10.9922 110.508 10.2109C110.305 9.42969 110.004 8.77344 109.605 8.24219C109.207 7.71094 108.719 7.30859 108.141 7.03516C107.57 6.76172 106.922 6.625 106.195 6.625C105.492 6.625 104.855 6.76172 104.285 7.03516C103.723 7.30859 103.238 7.71094 102.832 8.24219C102.434 8.77344 102.125 9.42969 101.906 10.2109C101.688 10.9922 101.578 11.8906 101.578 12.9062V14.0078C101.578 15.0312 101.688 15.9375 101.906 16.7266C102.125 17.5078 102.438 18.168 102.844 18.707C103.258 19.2383 103.746 19.6406 104.309 19.9141C104.879 20.1875 105.516 20.3242 106.219 20.3242C106.953 20.3242 107.605 20.1875 108.176 19.9141C108.746 19.6406 109.227 19.2383 109.617 18.707C110.016 18.168 110.316 17.5078 110.52 16.7266C110.723 15.9375 110.824 15.0312 110.824 14.0078ZM125.543 17.6875C125.543 17.2891 125.48 16.9375 125.355 16.6328C125.238 16.3203 125.027 16.0391 124.723 15.7891C124.426 15.5391 124.012 15.3008 123.48 15.0742C122.957 14.8477 122.293 14.6172 121.488 14.3828C120.645 14.1328 119.883 13.8555 119.203 13.5508C118.523 13.2383 117.941 12.8828 117.457 12.4844C116.973 12.0859 116.602 11.6289 116.344 11.1133C116.086 10.5977 115.957 10.0078 115.957 9.34375C115.957 8.67969 116.094 8.06641 116.367 7.50391C116.641 6.94141 117.031 6.45312 117.539 6.03906C118.055 5.61719 118.668 5.28906 119.379 5.05469C120.09 4.82031 120.883 4.70312 121.758 4.70312C123.039 4.70312 124.125 4.94922 125.016 5.44141C125.914 5.92578 126.598 6.5625 127.066 7.35156C127.535 8.13281 127.77 8.96875 127.77 9.85938H125.52C125.52 9.21875 125.383 8.65234 125.109 8.16016C124.836 7.66016 124.422 7.26953 123.867 6.98828C123.312 6.69922 122.609 6.55469 121.758 6.55469C120.953 6.55469 120.289 6.67578 119.766 6.91797C119.242 7.16016 118.852 7.48828 118.594 7.90234C118.344 8.31641 118.219 8.78906 118.219 9.32031C118.219 9.67969 118.293 10.0078 118.441 10.3047C118.598 10.5938 118.836 10.8633 119.156 11.1133C119.484 11.3633 119.898 11.5938 120.398 11.8047C120.906 12.0156 121.512 12.2188 122.215 12.4141C123.184 12.6875 124.02 12.9922 124.723 13.3281C125.426 13.6641 126.004 14.043 126.457 14.4648C126.918 14.8789 127.258 15.3516 127.477 15.8828C127.703 16.4062 127.816 17 127.816 17.6641C127.816 18.3594 127.676 18.9883 127.395 19.5508C127.113 20.1133 126.711 20.5938 126.188 20.9922C125.664 21.3906 125.035 21.6992 124.301 21.918C123.574 22.1289 122.762 22.2344 121.863 22.2344C121.074 22.2344 120.297 22.125 119.531 21.9062C118.773 21.6875 118.082 21.3594 117.457 20.9219C116.84 20.4844 116.344 19.9453 115.969 19.3047C115.602 18.6562 115.418 17.9062 115.418 17.0547H117.668C117.668 17.6406 117.781 18.1445 118.008 18.5664C118.234 18.9805 118.543 19.3242 118.934 19.5977C119.332 19.8711 119.781 20.0742 120.281 20.207C120.789 20.332 121.316 20.3945 121.863 20.3945C122.652 20.3945 123.32 20.2852 123.867 20.0664C124.414 19.8477 124.828 19.5352 125.109 19.1289C125.398 18.7227 125.543 18.2422 125.543 17.6875Z" fill="white"/>
</g>
<g filter="url(#filter1_d_3_2)">
<path d="M22.3672 22.2344C21.4844 22.2344 20.6836 22.0859 19.9648 21.7891C19.2539 21.4844 18.6406 21.0586 18.125 20.5117C17.6172 19.9648 17.2266 19.3164 16.9531 18.5664C16.6797 17.8164 16.543 16.9961 16.543 16.1055V15.6133C16.543 14.582 16.6953 13.6641 17 12.8594C17.3047 12.0469 17.7188 11.3594 18.2422 10.7969C18.7656 10.2344 19.3594 9.80859 20.0234 9.51953C20.6875 9.23047 21.375 9.08594 22.0859 9.08594C22.9922 9.08594 23.7734 9.24219 24.4297 9.55469C25.0938 9.86719 25.6367 10.3047 26.0586 10.8672C26.4805 11.4219 26.793 12.0781 26.9961 12.8359C27.1992 13.5859 27.3008 14.4062 27.3008 15.2969V16.2695H17.832V14.5H25.1328V14.3359C25.1016 13.7734 24.9844 13.2266 24.7812 12.6953C24.5859 12.1641 24.2734 11.7266 23.8438 11.3828C23.4141 11.0391 22.8281 10.8672 22.0859 10.8672C21.5938 10.8672 21.1406 10.9727 20.7266 11.1836C20.3125 11.3867 19.957 11.6914 19.6602 12.0977C19.3633 12.5039 19.1328 13 18.9688 13.5859C18.8047 14.1719 18.7227 14.8477 18.7227 15.6133V16.1055C18.7227 16.707 18.8047 17.2734 18.9688 17.8047C19.1406 18.3281 19.3867 18.7891 19.707 19.1875C20.0352 19.5859 20.4297 19.8984 20.8906 20.125C21.3594 20.3516 21.8906 20.4648 22.4844 20.4648C23.25 20.4648 23.8984 20.3086 24.4297 19.9961C24.9609 19.6836 25.4258 19.2656 25.8242 18.7422L27.1367 19.7852C26.8633 20.1992 26.5156 20.5938 26.0938 20.9688C25.6719 21.3438 25.1523 21.6484 24.5352 21.8828C23.9258 22.1172 23.2031 22.2344 22.3672 22.2344ZM37.3086 19.832V13.3047C37.3086 12.8047 37.207 12.3711 37.0039 12.0039C36.8086 11.6289 36.5117 11.3398 36.1133 11.1367C35.7148 10.9336 35.2227 10.832 34.6367 10.832C34.0898 10.832 33.6094 10.9258 33.1953 11.1133C32.7891 11.3008 32.4688 11.5469 32.2344 11.8516C32.0078 12.1562 31.8945 12.4844 31.8945 12.8359H29.7266C29.7266 12.3828 29.8438 11.9336 30.0781 11.4883C30.3125 11.043 30.6484 10.6406 31.0859 10.2812C31.5312 9.91406 32.0625 9.625 32.6797 9.41406C33.3047 9.19531 34 9.08594 34.7656 9.08594C35.6875 9.08594 36.5 9.24219 37.2031 9.55469C37.9141 9.86719 38.4688 10.3398 38.8672 10.9727C39.2734 11.5977 39.4766 12.3828 39.4766 13.3281V19.2344C39.4766 19.6562 39.5117 20.1055 39.582 20.582C39.6602 21.0586 39.7734 21.4688 39.9219 21.8125V22H37.6602C37.5508 21.75 37.4648 21.418 37.4023 21.0039C37.3398 20.582 37.3086 20.1914 37.3086 19.832ZM37.6836 14.3125L37.707 15.8359H35.5156C34.8984 15.8359 34.3477 15.8867 33.8633 15.9883C33.3789 16.082 32.9727 16.2266 32.6445 16.4219C32.3164 16.6172 32.0664 16.8633 31.8945 17.1602C31.7227 17.4492 31.6367 17.7891 31.6367 18.1797C31.6367 18.5781 31.7266 18.9414 31.9062 19.2695C32.0859 19.5977 32.3555 19.8594 32.7148 20.0547C33.082 20.2422 33.5312 20.3359 34.0625 20.3359C34.7266 20.3359 35.3125 20.1953 35.8203 19.9141C36.3281 19.6328 36.7305 19.2891 37.0273 18.8828C37.332 18.4766 37.4961 18.082 37.5195 17.6992L38.4453 18.7422C38.3906 19.0703 38.2422 19.4336 38 19.832C37.7578 20.2305 37.4336 20.6133 37.0273 20.9805C36.6289 21.3398 36.1523 21.6406 35.5977 21.8828C35.0508 22.1172 34.4336 22.2344 33.7461 22.2344C32.8867 22.2344 32.1328 22.0664 31.4844 21.7305C30.8438 21.3945 30.3438 20.9453 29.9844 20.3828C29.6328 19.8125 29.457 19.1758 29.457 18.4727C29.457 17.793 29.5898 17.1953 29.8555 16.6797C30.1211 16.1562 30.5039 15.7227 31.0039 15.3789C31.5039 15.0273 32.1055 14.7617 32.8086 14.582C33.5117 14.4023 34.2969 14.3125 35.1641 14.3125H37.6836ZM50.2695 18.6367C50.2695 18.3242 50.1992 18.0352 50.0586 17.7695C49.9258 17.4961 49.6484 17.25 49.2266 17.0312C48.8125 16.8047 48.1875 16.6094 47.3516 16.4453C46.6484 16.2969 46.0117 16.1211 45.4414 15.918C44.8789 15.7148 44.3984 15.4688 44 15.1797C43.6094 14.8906 43.3086 14.5508 43.0977 14.1602C42.8867 13.7695 42.7812 13.3125 42.7812 12.7891C42.7812 12.2891 42.8906 11.8164 43.1094 11.3711C43.3359 10.9258 43.6523 10.5312 44.0586 10.1875C44.4727 9.84375 44.9688 9.57422 45.5469 9.37891C46.125 9.18359 46.7695 9.08594 47.4805 9.08594C48.4961 9.08594 49.3633 9.26562 50.082 9.625C50.8008 9.98438 51.3516 10.4648 51.7344 11.0664C52.1172 11.6602 52.3086 12.3203 52.3086 13.0469H50.1406C50.1406 12.6953 50.0352 12.3555 49.8242 12.0273C49.6211 11.6914 49.3203 11.4141 48.9219 11.1953C48.5312 10.9766 48.0508 10.8672 47.4805 10.8672C46.8789 10.8672 46.3906 10.9609 46.0156 11.1484C45.6484 11.3281 45.3789 11.5586 45.207 11.8398C45.043 12.1211 44.9609 12.418 44.9609 12.7305C44.9609 12.9648 45 13.1758 45.0781 13.3633C45.1641 13.543 45.3125 13.7109 45.5234 13.8672C45.7344 14.0156 46.0312 14.1562 46.4141 14.2891C46.7969 14.4219 47.2852 14.5547 47.8789 14.6875C48.918 14.9219 49.7734 15.2031 50.4453 15.5312C51.1172 15.8594 51.6172 16.2617 51.9453 16.7383C52.2734 17.2148 52.4375 17.793 52.4375 18.4727C52.4375 19.0273 52.3203 19.5352 52.0859 19.9961C51.8594 20.457 51.5273 20.8555 51.0898 21.1914C50.6602 21.5195 50.1445 21.7773 49.543 21.9648C48.9492 22.1445 48.2812 22.2344 47.5391 22.2344C46.4219 22.2344 45.4766 22.0352 44.7031 21.6367C43.9297 21.2383 43.3438 20.7227 42.9453 20.0898C42.5469 19.457 42.3477 18.7891 42.3477 18.0859H44.5273C44.5586 18.6797 44.7305 19.1523 45.043 19.5039C45.3555 19.8477 45.7383 20.0938 46.1914 20.2422C46.6445 20.3828 47.0938 20.4531 47.5391 20.4531C48.1328 20.4531 48.6289 20.375 49.0273 20.2188C49.4336 20.0625 49.7422 19.8477 49.9531 19.5742C50.1641 19.3008 50.2695 18.9883 50.2695 18.6367ZM58.8477 20.6875L62.375 9.32031H64.6953L59.6094 23.957C59.4922 24.2695 59.3359 24.6055 59.1406 24.9648C58.9531 25.332 58.7109 25.6797 58.4141 26.0078C58.1172 26.3359 57.7578 26.6016 57.3359 26.8047C56.9219 27.0156 56.4258 27.1211 55.8477 27.1211C55.6758 27.1211 55.457 27.0977 55.1914 27.0508C54.9258 27.0039 54.7383 26.9648 54.6289 26.9336L54.6172 25.1758C54.6797 25.1836 54.7773 25.1914 54.9102 25.1992C55.0508 25.2148 55.1484 25.2227 55.2031 25.2227C55.6953 25.2227 56.1133 25.1562 56.457 25.0234C56.8008 24.8984 57.0898 24.6836 57.3242 24.3789C57.5664 24.082 57.7734 23.6719 57.9453 23.1484L58.8477 20.6875ZM56.2578 9.32031L59.5508 19.1641L60.1133 21.4492L58.5547 22.2461L53.8906 9.32031H56.2578Z" fill="#24FF00" fill-opacity="0.65" shape-rendering="crispEdges"/>
</g>
<defs>
<filter id="filter0_d_3_2" x="65.9492" y="4.70312" width="65.8672" height="25.5312" filterUnits="userSpaceOnUse" color-interpolation-filters="sRGB">
<feFlood flood-opacity="0" result="BackgroundImageFix"/>
<feColorMatrix in="SourceAlpha" type="matrix" values="0 0 0 0 0 0 0 0 0 0 0 0 0 0 0 0 0 0 127 0" result="hardAlpha"/>
<feOffset dy="4"/>
<feGaussianBlur stdDeviation="2"/>
<feComposite in2="hardAlpha" operator="out"/>
<feColorMatrix type="matrix" values="0 0 0 0 0 0 0 0 0 0 0 0 0 0 0 0 0 0 0.25 0"/>
<feBlend mode="normal" in2="BackgroundImageFix" result="effect1_dropShadow_3_2"/>
<feBlend mode="normal" in="SourceGraphic" in2="effect1_dropShadow_3_2" result="shape"/>
</filter>
<filter id="filter1_d_3_2" x="12.543" y="9.08594" width="56.1523" height="26.0352" filterUnits="userSpaceOnUse" color-interpolation-filters="sRGB">
<feFlood flood-opacity="0" result="BackgroundImageFix"/>
<feColorMatrix in="SourceAlpha" type="matrix" values="0 0 0 0 0 0 0 0 0 0 0 0 0 0 0 0 0 0 127 0" result="hardAlpha"/>
<feOffset dy="4"/>
<feGaussianBlur stdDeviation="2"/>
<feComposite in2="hardAlpha" operator="out"/>
<feColorMatrix type="matrix" values="0 0 0 0 0 0 0 0 0 0 0 0 0 0 0 0 0 0 0.25 0"/>
<feBlend mode="normal" in2="BackgroundImageFix" result="effect1_dropShadow_3_2"/>
<feBlend mode="normal" in="SourceGraphic" in2="effect1_dropShadow_3_2" result="shape"/>
</filter>
</defs>
</svg>
