<svg width="178" height="119" viewBox="0 0 178 119" fill="none" xmlns="http://www.w3.org/2000/svg">
<rect width="178" height="119" fill="black"/>
<g filter="url(#filter0_d_7_2)">
<path d="M40.6855 94.2188C40.6855 93.2227 40.5293 92.3438 40.2168 91.582C39.9238 90.8008 39.3965 90.0977 38.6348 89.4727C37.8926 88.8477 36.8574 88.252 35.5293 87.6855C34.2207 87.1191 32.5605 86.543 30.5488 85.957C28.4395 85.332 26.5352 84.6387 24.8359 83.877C23.1367 83.0957 21.6816 82.207 20.4707 81.2109C19.2598 80.2148 18.332 79.0723 17.6875 77.7832C17.043 76.4941 16.7207 75.0195 16.7207 73.3594C16.7207 71.6992 17.0625 70.166 17.7461 68.7598C18.4297 67.3535 19.4062 66.1328 20.6758 65.0977C21.9648 64.043 23.498 63.2227 25.2754 62.6367C27.0527 62.0508 29.0352 61.7578 31.2227 61.7578C34.4258 61.7578 37.1406 62.373 39.3672 63.6035C41.6133 64.8145 43.3223 66.4062 44.4941 68.3789C45.666 70.332 46.252 72.4219 46.252 74.6484H40.627C40.627 73.0469 40.2852 71.6309 39.6016 70.4004C38.918 69.1504 37.8828 68.1738 36.4961 67.4707C35.1094 66.748 33.3516 66.3867 31.2227 66.3867C29.2109 66.3867 27.5508 66.6895 26.2422 67.2949C24.9336 67.9004 23.957 68.7207 23.3125 69.7559C22.6875 70.791 22.375 71.9727 22.375 73.3008C22.375 74.1992 22.5605 75.0195 22.9316 75.7617C23.3223 76.4844 23.918 77.1582 24.7188 77.7832C25.5391 78.4082 26.5742 78.9844 27.8242 79.5117C29.0938 80.0391 30.6074 80.5469 32.3652 81.0352C34.7871 81.7188 36.877 82.4805 38.6348 83.3203C40.3926 84.1602 41.8379 85.1074 42.9707 86.1621C44.123 87.1973 44.9727 88.3789 45.5195 89.707C46.0859 91.0156 46.3691 92.5 46.3691 94.1602C46.3691 95.8984 46.0176 97.4707 45.3145 98.877C44.6113 100.283 43.6055 101.484 42.2969 102.48C40.9883 103.477 39.416 104.248 37.5801 104.795C35.7637 105.322 33.7324 105.586 31.4863 105.586C29.5137 105.586 27.5703 105.312 25.6562 104.766C23.7617 104.219 22.0332 103.398 20.4707 102.305C18.9277 101.211 17.6875 99.8633 16.75 98.2617C15.832 96.6406 15.373 94.7656 15.373 92.6367H20.998C20.998 94.1016 21.2812 95.3613 21.8477 96.416C22.4141 97.4512 23.1855 98.3105 24.1621 98.9941C25.1582 99.6777 26.2812 100.186 27.5312 100.518C28.8008 100.83 30.1191 100.986 31.4863 100.986C33.459 100.986 35.1289 100.713 36.4961 100.166C37.8633 99.6191 38.8984 98.8379 39.6016 97.8223C40.3242 96.8066 40.6855 95.6055 40.6855 94.2188ZM59.2305 62.3438V105H53.5762V62.3438H59.2305ZM84.9824 62.3438L67.2578 82.2363L57.2969 92.5781L56.3594 86.543L63.8594 78.2812L78.1855 62.3438H84.9824ZM79.5332 105L63.7422 84.1992L67.1113 79.7168L86.2715 105H79.5332ZM123.156 82.3242V85.0195C123.156 88.2227 122.756 91.0938 121.955 93.6328C121.154 96.1719 120.002 98.3301 118.498 100.107C116.994 101.885 115.188 103.242 113.078 104.18C110.988 105.117 108.645 105.586 106.047 105.586C103.527 105.586 101.213 105.117 99.1035 104.18C97.0137 103.242 95.1973 101.885 93.6543 100.107C92.1309 98.3301 90.9492 96.1719 90.1094 93.6328C89.2695 91.0938 88.8496 88.2227 88.8496 85.0195V82.3242C88.8496 79.1211 89.2598 76.2598 90.0801 73.7402C90.9199 71.2012 92.1016 69.043 93.625 67.2656C95.1484 65.4688 96.9551 64.1016 99.0449 63.1641C101.154 62.2266 103.469 61.7578 105.988 61.7578C108.586 61.7578 110.93 62.2266 113.02 63.1641C115.129 64.1016 116.936 65.4688 118.439 67.2656C119.963 69.043 121.125 71.2012 121.926 73.7402C122.746 76.2598 123.156 79.1211 123.156 82.3242ZM117.561 85.0195V82.2656C117.561 79.7266 117.297 77.4805 116.77 75.5273C116.262 73.5742 115.51 71.9336 114.514 70.6055C113.518 69.2773 112.297 68.2715 110.852 67.5879C109.426 66.9043 107.805 66.5625 105.988 66.5625C104.23 66.5625 102.639 66.9043 101.213 67.5879C99.8066 68.2715 98.5957 69.2773 97.5801 70.6055C96.584 71.9336 95.8125 73.5742 95.2656 75.5273C94.7188 77.4805 94.4453 79.7266 94.4453 82.2656V85.0195C94.4453 87.5781 94.7188 89.8438 95.2656 91.8164C95.8125 93.7695 96.5938 95.4199 97.6094 96.7676C98.6445 98.0957 99.8652 99.1016 101.271 99.7852C102.697 100.469 104.289 100.811 106.047 100.811C107.883 100.811 109.514 100.469 110.939 99.7852C112.365 99.1016 113.566 98.0957 114.543 96.7676C115.539 95.4199 116.291 93.7695 116.799 91.8164C117.307 89.8438 117.561 87.5781 117.561 85.0195ZM154.357 94.2188C154.357 93.2227 154.201 92.3438 153.889 91.582C153.596 90.8008 153.068 90.0977 152.307 89.4727C151.564 88.8477 150.529 88.252 149.201 87.6855C147.893 87.1191 146.232 86.543 144.221 85.957C142.111 85.332 140.207 84.6387 138.508 83.877C136.809 83.0957 135.354 82.207 134.143 81.2109C132.932 80.2148 132.004 79.0723 131.359 77.7832C130.715 76.4941 130.393 75.0195 130.393 73.3594C130.393 71.6992 130.734 70.166 131.418 68.7598C132.102 67.3535 133.078 66.1328 134.348 65.0977C135.637 64.043 137.17 63.2227 138.947 62.6367C140.725 62.0508 142.707 61.7578 144.895 61.7578C148.098 61.7578 150.812 62.373 153.039 63.6035C155.285 64.8145 156.994 66.4062 158.166 68.3789C159.338 70.332 159.924 72.4219 159.924 74.6484H154.299C154.299 73.0469 153.957 71.6309 153.273 70.4004C152.59 69.1504 151.555 68.1738 150.168 67.4707C148.781 66.748 147.023 66.3867 144.895 66.3867C142.883 66.3867 141.223 66.6895 139.914 67.2949C138.605 67.9004 137.629 68.7207 136.984 69.7559C136.359 70.791 136.047 71.9727 136.047 73.3008C136.047 74.1992 136.232 75.0195 136.604 75.7617C136.994 76.4844 137.59 77.1582 138.391 77.7832C139.211 78.4082 140.246 78.9844 141.496 79.5117C142.766 80.0391 144.279 80.5469 146.037 81.0352C148.459 81.7188 150.549 82.4805 152.307 83.3203C154.064 84.1602 155.51 85.1074 156.643 86.1621C157.795 87.1973 158.645 88.3789 159.191 89.707C159.758 91.0156 160.041 92.5 160.041 94.1602C160.041 95.8984 159.689 97.4707 158.986 98.877C158.283 100.283 157.277 101.484 155.969 102.48C154.66 103.477 153.088 104.248 151.252 104.795C149.436 105.322 147.404 105.586 145.158 105.586C143.186 105.586 141.242 105.312 139.328 104.766C137.434 104.219 135.705 103.398 134.143 102.305C132.6 101.211 131.359 99.8633 130.422 98.2617C129.504 96.6406 129.045 94.7656 129.045 92.6367H134.67C134.67 94.1016 134.953 95.3613 135.52 96.416C136.086 97.4512 136.857 98.3105 137.834 98.9941C138.83 99.6777 139.953 100.186 141.203 100.518C142.473 100.83 143.791 100.986 145.158 100.986C147.131 100.986 148.801 100.713 150.168 100.166C151.535 99.6191 152.57 98.8379 153.273 97.8223C153.996 96.8066 154.357 95.6055 154.357 94.2188Z" fill="white"/>
</g>
<g filter="url(#filter1_d_7_2)">
<path d="M41.265 45.5859C39.0579 45.5859 37.056 45.2148 35.2591 44.4727C33.4818 43.7109 31.9485 42.6465 30.6595 41.2793C29.39 39.9121 28.4134 38.291 27.7298 36.416C27.0462 34.541 26.7044 32.4902 26.7044 30.2637V29.0332C26.7044 26.4551 27.0853 24.1602 27.847 22.1484C28.6087 20.1172 29.6439 18.3984 30.9525 16.9922C32.261 15.5859 33.7454 14.5215 35.4056 13.7988C37.0657 13.0762 38.7845 12.7148 40.5618 12.7148C42.8275 12.7148 44.7806 13.1055 46.4212 13.8867C48.0814 14.668 49.4388 15.7617 50.4935 17.168C51.5482 18.5547 52.3294 20.1953 52.8372 22.0898C53.345 23.9648 53.5989 26.0156 53.5989 28.2422V30.6738H29.9271V26.25H48.179V25.8398C48.1009 24.4336 47.8079 23.0664 47.3001 21.7383C46.8118 20.4102 46.0306 19.3164 44.9564 18.457C43.8821 17.5977 42.4173 17.168 40.5618 17.168C39.3314 17.168 38.1985 17.4316 37.1634 17.959C36.1282 18.4668 35.2396 19.2285 34.4974 20.2441C33.7552 21.2598 33.179 22.5 32.7689 23.9648C32.3587 25.4297 32.1536 27.1191 32.1536 29.0332V30.2637C32.1536 31.7676 32.3587 33.1836 32.7689 34.5117C33.1985 35.8203 33.8138 36.9727 34.6146 37.9688C35.4349 38.9648 36.4212 39.7461 37.5735 40.3125C38.7454 40.8789 40.0735 41.1621 41.5579 41.1621C43.472 41.1621 45.0931 40.7715 46.4212 39.9902C47.7493 39.209 48.9114 38.1641 49.9075 36.8555L53.1888 39.4629C52.5052 40.498 51.636 41.4844 50.5814 42.4219C49.5267 43.3594 48.2278 44.1211 46.6849 44.707C45.1614 45.293 43.3548 45.5859 41.265 45.5859ZM78.6185 39.5801V23.2617C78.6185 22.0117 78.3646 20.9277 77.8568 20.0098C77.3685 19.0723 76.6263 18.3496 75.6302 17.8418C74.6341 17.334 73.4036 17.0801 71.9388 17.0801C70.5716 17.0801 69.3704 17.3145 68.3353 17.7832C67.3196 18.252 66.5189 18.8672 65.9329 19.6289C65.3665 20.3906 65.0833 21.2109 65.0833 22.0898H59.6634C59.6634 20.957 59.9564 19.834 60.5423 18.7207C61.1282 17.6074 61.9681 16.6016 63.0618 15.7031C64.1751 14.7852 65.5032 14.0625 67.0462 13.5352C68.6087 12.9883 70.347 12.7148 72.261 12.7148C74.5657 12.7148 76.597 13.1055 78.3548 13.8867C80.1321 14.668 81.5189 15.8496 82.515 17.4316C83.5306 18.9941 84.0384 20.957 84.0384 23.3203V38.0859C84.0384 39.1406 84.1263 40.2637 84.3021 41.4551C84.4974 42.6465 84.7806 43.6719 85.1517 44.5312V45H79.4974C79.2239 44.375 79.0091 43.5449 78.8528 42.5098C78.6966 41.4551 78.6185 40.4785 78.6185 39.5801ZM79.556 25.7812L79.6146 29.5898H74.136C72.5931 29.5898 71.2161 29.7168 70.0052 29.9707C68.7943 30.2051 67.7786 30.5664 66.9583 31.0547C66.138 31.543 65.513 32.1582 65.0833 32.9004C64.6536 33.623 64.4388 34.4727 64.4388 35.4492C64.4388 36.4453 64.6634 37.3535 65.1126 38.1738C65.5618 38.9941 66.2357 39.6484 67.1341 40.1367C68.0521 40.6055 69.1751 40.8398 70.5032 40.8398C72.1634 40.8398 73.6282 40.4883 74.8978 39.7852C76.1673 39.082 77.1732 38.2227 77.9153 37.207C78.6771 36.1914 79.0872 35.2051 79.1458 34.248L81.4603 36.8555C81.3235 37.6758 80.9525 38.584 80.347 39.5801C79.7415 40.5762 78.931 41.5332 77.9153 42.4512C76.9193 43.3496 75.7278 44.1016 74.3411 44.707C72.9739 45.293 71.431 45.5859 69.7122 45.5859C67.5638 45.5859 65.679 45.166 64.0579 44.3262C62.4564 43.4863 61.2064 42.3633 60.3079 40.957C59.429 39.5312 58.9896 37.9395 58.9896 36.1816C58.9896 34.4824 59.3216 32.9883 59.9857 31.6992C60.6497 30.3906 61.6068 29.3066 62.8568 28.4473C64.1068 27.5684 65.6107 26.9043 67.3685 26.4551C69.1263 26.0059 71.0892 25.7812 73.2571 25.7812H79.556ZM111.021 36.5918C111.021 35.8105 110.845 35.0879 110.493 34.4238C110.161 33.7402 109.468 33.125 108.413 32.5781C107.378 32.0117 105.816 31.5234 103.726 31.1133C101.968 30.7422 100.376 30.3027 98.9505 29.7949C97.5443 29.2871 96.3431 28.6719 95.347 27.9492C94.3704 27.2266 93.6185 26.377 93.0911 25.4004C92.5638 24.4238 92.3001 23.2812 92.3001 21.9727C92.3001 20.7227 92.5735 19.541 93.1204 18.4277C93.6868 17.3145 94.4778 16.3281 95.4935 15.4688C96.5286 14.6094 97.7689 13.9355 99.2142 13.4473C100.659 12.959 102.271 12.7148 104.048 12.7148C106.587 12.7148 108.755 13.1641 110.552 14.0625C112.349 14.9609 113.726 16.1621 114.683 17.666C115.64 19.1504 116.118 20.8008 116.118 22.6172H110.699C110.699 21.7383 110.435 20.8887 109.908 20.0684C109.4 19.2285 108.648 18.5352 107.652 17.9883C106.675 17.4414 105.474 17.168 104.048 17.168C102.544 17.168 101.324 17.4023 100.386 17.8711C99.4681 18.3203 98.7943 18.8965 98.3646 19.5996C97.9544 20.3027 97.7493 21.0449 97.7493 21.8262C97.7493 22.4121 97.847 22.9395 98.0423 23.4082C98.2571 23.8574 98.6282 24.2773 99.1556 24.668C99.6829 25.0391 100.425 25.3906 101.382 25.7227C102.339 26.0547 103.56 26.3867 105.044 26.7188C107.642 27.3047 109.781 28.0078 111.46 28.8281C113.14 29.6484 114.39 30.6543 115.21 31.8457C116.031 33.0371 116.441 34.4824 116.441 36.1816C116.441 37.5684 116.148 38.8379 115.562 39.9902C114.995 41.1426 114.165 42.1387 113.072 42.9785C111.997 43.7988 110.708 44.4434 109.204 44.9121C107.72 45.3613 106.05 45.5859 104.195 45.5859C101.402 45.5859 99.0384 45.0879 97.1048 44.0918C95.1712 43.0957 93.7064 41.8066 92.7103 40.2246C91.7142 38.6426 91.2161 36.9727 91.2161 35.2148H96.6653C96.7435 36.6992 97.1732 37.8809 97.9544 38.7598C98.7357 39.6191 99.6927 40.2344 100.826 40.6055C101.958 40.957 103.081 41.1328 104.195 41.1328C105.679 41.1328 106.919 40.9375 107.915 40.5469C108.931 40.1562 109.702 39.6191 110.23 38.9355C110.757 38.252 111.021 37.4707 111.021 36.5918ZM132.466 41.7188L141.284 13.3008H147.085L134.37 49.8926C134.077 50.6738 133.687 51.5137 133.199 52.4121C132.73 53.3301 132.124 54.1992 131.382 55.0195C130.64 55.8398 129.742 56.5039 128.687 57.0117C127.652 57.5391 126.411 57.8027 124.966 57.8027C124.536 57.8027 123.99 57.7441 123.326 57.627C122.661 57.5098 122.193 57.4121 121.919 57.334L121.89 52.9395C122.046 52.959 122.29 52.9785 122.622 52.998C122.974 53.0371 123.218 53.0566 123.355 53.0566C124.585 53.0566 125.63 52.8906 126.49 52.5586C127.349 52.2461 128.072 51.709 128.658 50.9473C129.263 50.2051 129.781 49.1797 130.21 47.8711L132.466 41.7188ZM125.992 13.3008L134.224 37.9102L135.63 43.623L131.734 45.6152L120.074 13.3008H125.992Z" fill="#24FF00" fill-opacity="0.65" shape-rendering="crispEdges"/>
</g>
<defs>
<filter id="filter0_d_7_2" x="11.373" y="61.7578" width="152.668" height="51.8281" filterUnits="userSpaceOnUse" color-interpolation-filters="sRGB">
<feFlood flood-opacity="0" result="BackgroundImageFix"/>
<feColorMatrix in="SourceAlpha" type="matrix" values="0 0 0 0 0 0 0 0 0 0 0 0 0 0 0 0 0 0 127 0" result="hardAlpha"/>
<feOffset dy="4"/>
<feGaussianBlur stdDeviation="2"/>
<feComposite in2="hardAlpha" operator="out"/>
<feColorMatrix type="matrix" values="0 0 0 0 0 0 0 0 0 0 0 0 0 0 0 0 0 0 0.25 0"/>
<feBlend mode="normal" in2="BackgroundImageFix" result="effect1_dropShadow_7_2"/>
<feBlend mode="normal" in="SourceGraphic" in2="effect1_dropShadow_7_2" result="shape"/>
</filter>
<filter id="filter1_d_7_2" x="22.7044" y="12.7148" width="128.381" height="53.0879" filterUnits="userSpaceOnUse" color-interpolation-filters="sRGB">
<feFlood flood-opacity="0" result="BackgroundImageFix"/>
<feColorMatrix in="SourceAlpha" type="matrix" values="0 0 0 0 0 0 0 0 0 0 0 0 0 0 0 0 0 0 127 0" result="hardAlpha"/>
<feOffset dy="4"/>
<feGaussianBlur stdDeviation="2"/>
<feComposite in2="hardAlpha" operator="out"/>
<feColorMatrix type="matrix" values="0 0 0 0 0 0 0 0 0 0 0 0 0 0 0 0 0 0 0.25 0"/>
<feBlend mode="normal" in2="BackgroundImageFix" result="effect1_dropShadow_7_2"/>
<feBlend mode="normal" in="SourceGraphic" in2="effect1_dropShadow_7_2" result="shape"/>
</filter>
</defs>
</svg>
